<svg xmlns="http://www.w3.org/2000/svg" width="586" height="586" overflow="hidden"><defs><clipPath id="a"><path d="M-4526-2762h586v586h-586z"/></clipPath></defs><g fill-rule="evenodd" clip-path="url(#a)" transform="translate(4526 2762)"><path fill="#FFF" d="M-3954-2468.5c0 153.78-124.72 278.5-278.5 278.5-153.77 0-278.5-124.72-278.5-278.5 0-153.89 124.73-278.5 278.5-278.5 153.78 0 278.5 124.72 278.5 278.5Z"/><path fill="#E60012" d="M-4232.66-2205.96c-140.1 0-254.39-109.39-262.02-247.28h34.8c0 4.82.67 10.43 1.35 15.37l61.97-30.63-62.76-26.48c0 4.15-.67 7.63-.67 11.11h-34.8c7.63-137.22 121.91-246.5 262.01-246.5 139.43 0 253.6 109.39 261.35 246.5h-34.8c0-3.48 0-6.96-.68-11.11l-61.97 26.48 61.3 30.63c.67-4.82 1.35-10.43 1.35-15.37h34.8c-7.64 138-121.92 247.28-261.23 247.28Zm0-555.04c-161.66 0-293.34 130.93-293.34 292.5s131.68 292.5 293.34 292.5c161.65 0 292.66-130.93 292.66-292.5s-131.01-292.5-292.66-292.5Z"/><path fill="#E60012" d="M-4232.5-2305.13c-80.84 0-147.08-57.84-161-133.87l-58.5 29.99c25.82 96.92 114.3 168.01 219.5 168.01 104.53 0 193-71.09 219.5-168.01l-58.5-29.99c-14.03 76.03-80.83 133.87-161 133.87ZM-4232.61-2632.44c80.21 0 147.16 58.61 161.09 135.44l58.52-30.04c-25.84-97.08-114.35-168.96-219.61-168.96-105.92 0-194.55 71.88-220.39 168.96l58.52 30.04c14.05-76.72 80.99-135.44 161.87-135.44Z"/><path fill="#E60012" d="m-4224.55-2363.99-86.43-174.73h38.95l46.02 91.18 43.89-91.18h37.6l-80.03 174.73Zm-5.61-229.01c-69.71 0-126.84 56.41-126.84 125.94 0 69.65 57.13 126.06 126.84 126.06 69.7 0 126.16-56.41 126.16-126.06 0-69.53-56.46-125.94-126.16-125.94Z"/></g></svg>